<svg xmlns="http://www.w3.org/2000/svg" viewBox="0 0 400 300" width="0" height="0" class="illustration styles_illustrationTablet__1DWOa"><g id="_76_hiking" data-name="#76_hiking"><path d="M57.91,246a1,1,0,0,1-.5-.13,2.07,2.07,0,0,1-.89-1.51,23.17,23.17,0,0,1,5.72-18.31,26,26,0,0,1,18.09-8.36,10.9,10.9,0,0,1,6.1,1.84A33.17,33.17,0,0,1,97,189.29c4.29-3.83,9-5.71,13.23-5.31a10.22,10.22,0,0,1,7.33,4.31,7.19,7.19,0,0,1,1.24,3.18c3-4.17,9.36-5.49,13.21-5.91,8.61-.93,16,0,21.92,2.87,7.25,3.46,12.18,10,12.55,16.75a12.29,12.29,0,0,1-.8,5.27,13.13,13.13,0,0,1,14.35,2,11.43,11.43,0,0,1,1.13,15.12.5.5,0,0,1-.78-.62,10.42,10.42,0,0,0-1-13.78,12,12,0,0,0-14.62-1,.5.5,0,0,1-.71-.68,10.5,10.5,0,0,0,1.47-6.26c-.35-6.36-5.05-12.6-12-15.91-5.77-2.75-13-3.68-21.38-2.77-4.21.45-11.57,2-13.51,7.4a.51.51,0,0,1-.63.31.49.49,0,0,1-.32-.62,5.67,5.67,0,0,0-.93-4.8,9.35,9.35,0,0,0-6.6-3.88c-5.35-.49-10.1,3-12.46,5.07a32,32,0,0,0-10,30.8.5.5,0,0,1-.88.42c-1.26-1.61-4.42-2.65-6.48-2.57a25,25,0,0,0-17.38,8,22.18,22.18,0,0,0-5.47,17.51,1.15,1.15,0,0,0,.38.76.54.54,0,0,1,.69.25.49.49,0,0,1-.23.66A1,1,0,0,1,57.91,246Z" fill="#d1d3d4"></path><path d="M322.41,260.33a.49.49,0,0,1-.41-.21.5.5,0,0,1,.13-.7,32.27,32.27,0,0,0-5.55-56.19c-3.35-1.45-8.35-2.85-13.14-1.31a27.28,27.28,0,0,0-7.28,4.2.52.52,0,0,1-.45.08.5.5,0,0,1-.32-.33,24.87,24.87,0,0,0-43.74-7.45.5.5,0,0,1-.64.14.49.49,0,0,1-.23-.61c1.07-2.93-.07-6.61-2.78-8.95-2.89-2.49-6.76-3.13-9.5-3.22a25.35,25.35,0,0,0-15.5,4.66C216.65,195,210.36,200,209.21,208c-.85,5.85.51,11.74,2.11,17.23a.5.5,0,0,1-.23.58.52.52,0,0,1-.62-.1c-4.16-4.46-8.23-5.29-13.18-2.67-5.48,2.9-9.73,8.47-11.66,15.29-.61,2.14-1,5.05.74,6.72h0a.5.5,0,0,1-.69.72h0c-2.55-2.47-6.48-1.81-9.25-.07-3.21,2-4.09,6.8-4.47,10.21a.48.48,0,0,1-.55.44.5.5,0,0,1-.44-.55c.4-3.62,1.35-8.69,4.93-10.95,2.47-1.55,5.8-2.31,8.54-1.11a10.18,10.18,0,0,1,.23-5.69c2-7.08,6.43-12.87,12.15-15.89,4.81-2.54,9-2.06,13,1.54-1.39-5.08-2.41-10.45-1.63-15.84,1.21-8.34,7.68-13.57,14.2-18.22a26.43,26.43,0,0,1,16.11-4.84c2.9.1,7,.78,10.12,3.46a9.93,9.93,0,0,1,3.51,8,25.86,25.86,0,0,1,44,8.71,25.63,25.63,0,0,1,7-3.94c5.08-1.64,10.34-.17,13.85,1.34a33.28,33.28,0,0,1,5.71,57.94A.46.46,0,0,1,322.41,260.33Z" fill="#d1d3d4"></path><path d="M350.17,262H49.83a.5.5,0,0,1-.5-.5.51.51,0,0,1,.5-.5H350.17a.51.51,0,0,1,.5.5A.5.5,0,0,1,350.17,262Z" fill="#d1d3d4"></path><path d="M222.12,53.59c.13-2.39-1.65-5-1.75-7.42a1.25,1.25,0,0,1,.15-.79.93.93,0,0,1,1.21-.16,2.81,2.81,0,0,1,.87,1L223.66,48a3.75,3.75,0,0,1,1.09-1.52,6.21,6.21,0,0,1,5.17-.92,7.46,7.46,0,0,1,5.16,4.55,12,12,0,0,1,.71,4.24,21.45,21.45,0,0,1-1.92,9.19s3.48,34.26-1,35.84c-18.58,6.56-39.62-9-39.62-9s-.44-15.8-.46-16.24c.05,1.16,19.15,6.13,20.78,6.43,3,.55,8,2.72,8.24-1.94C222,75.68,221.87,58,222.12,53.59Z" fill="#fff"></path><path d="M223.17,101.47c-15.53,0-30-10.59-30.22-10.72a.49.49,0,0,1-.21-.4c0-.16-.44-15.8-.46-16.23h0a.51.51,0,0,1,1-.21c1.32,1.17,18.19,5.71,20.39,6.11.52.09,1.09.23,1.68.38,1.89.46,4,1,5.12.18a2.55,2.55,0,0,0,.84-2c.07-1.29.09-5.63.11-10.23,0-5.78.05-12.33.19-14.77h0a10,10,0,0,0-.83-3.7,12.93,12.93,0,0,1-.92-3.67,1.81,1.81,0,0,1,.25-1.11,1.42,1.42,0,0,1,1.89-.3A3.07,3.07,0,0,1,223,46l.59,1a4.59,4.59,0,0,1,.78-.87A6.74,6.74,0,0,1,230,45a7.89,7.89,0,0,1,5.53,4.86,12.13,12.13,0,0,1,.75,4.42,22.27,22.27,0,0,1-1.91,9.28c.11,1.14.88,9.15,1.16,17.23.57,16-1.17,18.54-2.52,19A29.43,29.43,0,0,1,223.17,101.47Zm-29.41-11.4a65.66,65.66,0,0,0,12.55,6.77c6.83,2.77,16.95,5.37,26.38,2,1.59-.56,3.17-10.64.67-35.31a.63.63,0,0,1,0-.27,21.15,21.15,0,0,0,1.88-9,11.26,11.26,0,0,0-.68-4,6.87,6.87,0,0,0-4.79-4.23,5.72,5.72,0,0,0-4.73.8,3.26,3.26,0,0,0-.93,1.31.52.52,0,0,1-.44.34.51.51,0,0,1-.49-.25l-1.07-1.76a2.22,2.22,0,0,0-.68-.82c-.18-.11-.45-.11-.52,0a.89.89,0,0,0-.06.48,11.86,11.86,0,0,0,.85,3.36,10.79,10.79,0,0,1,.89,4.11h0c-.13,2.41-.16,9-.19,14.71,0,4.82,0,9-.11,10.28a3.55,3.55,0,0,1-1.26,2.8c-1.49,1.1-3.87.51-6,0-.57-.14-1.12-.28-1.62-.37-.83-.15-6.07-1.48-11-2.9a67.16,67.16,0,0,1-9.11-3C193.43,78.39,193.71,88.29,193.76,90.07Zm-.45-16Zm28.81-20.49h0Z" fill="#231f20"></path><polygon points="204.23 172.42 232.87 234.79 248.36 230.09 227.8 162.17 204.23 172.42" fill="#fff"></polygon><path d="M232.87,235.31a.5.5,0,0,1-.47-.3l-28.64-62.38a.55.55,0,0,1,0-.4A.51.51,0,0,1,204,172l23.57-10.26a.51.51,0,0,1,.42,0,.55.55,0,0,1,.28.32l20.56,67.92a.52.52,0,0,1-.35.65L233,235.29Zm-28-62.63,28.23,61.49,14.57-4.42-20.24-66.88Z" fill="#231f20"></path><polygon points="146.14 189.77 113.42 248.47 129.78 248.47 178.76 182.14 146.14 189.77" fill="#fff"></polygon><path d="M129.78,249H113.43a.53.53,0,0,1-.45-.25.56.56,0,0,1,0-.52l32.72-58.69a.49.49,0,0,1,.34-.25l32.61-7.63a.5.5,0,0,1,.55.21.53.53,0,0,1,0,.6l-49,66.32A.53.53,0,0,1,129.78,249Zm-15.48-1h15.22l48-65-31,7.26Z" fill="#231f20"></path><path d="M155.54,65a22,22,0,0,0-9.29.11c-6.75,1.82-11.22,8.23-14,14.66-3.88,9.1-5.47,19-6.72,28.79a195.9,195.9,0,0,0-1.95,27.26c0,4,.42,8.27,3,11.25,3.5,4,9.52,4.14,14.83,4.31,4.42.14,8.87.51,13.26-.07s8.8-2.25,11.77-5.53a24,24,0,0,0,4-7.07c2.17-5.28,3.81-10.75,5.45-16.21,3.61-12,7.22-24,8.89-36.4a18.29,18.29,0,0,0-.1-7.48c-1.46-5-7.78-6.08-12-8A71.42,71.42,0,0,0,155.54,65Z" fill="#231f20"></path><path d="M149.29,152.09c-1.77,0-3.54-.08-5.28-.15l-2.54-.1h-.2c-5.34-.17-11.39-.36-15-4.47-2.69-3.06-3.1-7.37-3.16-11.57a197.92,197.92,0,0,1,1.95-27.34c1.16-9,2.73-19.46,6.76-28.91,2.43-5.72,6.89-13,14.29-15a22,22,0,0,1,9.51-.12h0A72,72,0,0,1,173,70.14c.92.41,1.92.78,3,1.16,3.81,1.39,8.12,3,9.33,7.15a18.71,18.71,0,0,1,.12,7.67c-1.68,12.47-5.36,24.68-8.91,36.48-1.62,5.38-3.29,11-5.47,16.25a24,24,0,0,1-4.14,7.22c-3.46,3.83-8.48,5.21-12.07,5.69A40.84,40.84,0,0,1,149.29,152.09ZM150.71,65a16.73,16.73,0,0,0-4.33.53c-7,1.89-11.28,8.86-13.63,14.38-4,9.33-5.54,19.68-6.69,28.65a197.69,197.69,0,0,0-1.94,27.2c0,4,.44,8.1,2.91,10.92,3.32,3.78,9.14,4,14.28,4.13h.19l2.55.1a60.89,60.89,0,0,0,10.63-.17c3.43-.46,8.21-1.76,11.47-5.37a23.29,23.29,0,0,0,4-6.92c2.16-5.27,3.82-10.81,5.43-16.16,3.55-11.77,7.21-23.94,8.88-36.33a17.8,17.8,0,0,0-.1-7.27c-1.06-3.69-4.94-5.11-8.7-6.48-1.09-.39-2.11-.76-3.06-1.19a71.19,71.19,0,0,0-17.1-5.59h0A29.22,29.22,0,0,0,150.71,65Z" fill="#231f20"></path><path d="M207.56,94s3.27-14.48,3.42-15.48c.12-.75-23.34-4.44-23.34-4.44l.55-1.56h0l-6.21.1s-5.8-.15-12.59,5.27c-5.3,4.23-11.48,13-14.14,20.15-9.4,25.07-4.73,56.31-4.73,56.31l52-19.55s-5.22-13.28-5.54-18.8c-.15-2.55.72-10.67,1-19.29Z" fill="#d92727"></path><path d="M196.32,77.11c1.32,3.36,3,6.56,3.44,10.21.47,4-.21,7.9-1,11.84-.82,4.28-1.57,8.57-2.05,12.89-.14,1.27-.32,3.35.94,4.14.51.32,2.85-5.57,3.07-6.15a44.59,44.59,0,0,0,.44-31.43c-.69-1.87-1.84-4-3.82-4.23-.64-.1-1.44.14-1.59.77a1.68,1.68,0,0,0,.14.93Z" fill="#231f20"></path><path d="M197.75,116.69a.67.67,0,0,1-.33-.08c-1.57-1-1.3-3.43-1.17-4.61.51-4.62,1.33-9.13,2.06-12.93.78-4.12,1.4-7.84,1-11.69a28.18,28.18,0,0,0-2.44-7.72c-.33-.78-.66-1.57-1-2.36h0c-.14-.35-.27-.7-.4-1a2,2,0,0,1-.15-1.21,1.83,1.83,0,0,1,2.14-1.16c1.8.26,3.18,1.75,4.22,4.56a45.2,45.2,0,0,1-.44,31.78c-1.59,4.08-2.7,6.25-3.31,6.45A.42.42,0,0,1,197.75,116.69Zm-1-39.76c.31.79.64,1.57,1,2.34a29.42,29.42,0,0,1,2.5,8c.46,4-.17,7.8-1,12-.73,3.79-1.54,8.28-2,12.86-.1.89-.29,2.65.45,3.45a45.85,45.85,0,0,0,3-36.77c-.9-2.44-2-3.72-3.42-3.92-.43-.06-1,.09-1,.4a1.25,1.25,0,0,0,.12.64l.39,1Z" fill="#231f20"></path><path d="M174.5,118.43a37.44,37.44,0,0,0,8.86-23.59A25,25,0,0,0,180.2,81.6a15.19,15.19,0,0,0-11-7.5L166.42,78c4.34,1.72,8.9,4.12,10.7,8.43a15.22,15.22,0,0,1,.82,7c-1.18,16.15-15.6,31.72-31.85,33.6l1.46,4.87a1.37,1.37,0,0,0,.48.84,1.42,1.42,0,0,0,1.13.05C158.37,130.58,168.27,125.74,174.5,118.43Z" fill="#231f20"></path><path d="M148.55,133.37a1.43,1.43,0,0,1-.8-.22,1.84,1.84,0,0,1-.68-1.12l-1.46-4.87a.52.52,0,0,1,.06-.42.55.55,0,0,1,.36-.22c15.85-1.83,30.23-17,31.41-33.14a14.49,14.49,0,0,0-.78-6.74c-1.79-4.27-6.51-6.6-10.42-8.16a.5.5,0,0,1-.23-.75l2.79-3.92a.49.49,0,0,1,.46-.2,15.56,15.56,0,0,1,11.37,7.73,25.27,25.27,0,0,1,3.23,13.51,38.21,38.21,0,0,1-9,23.9h0c-5.71,6.71-15,12-25.61,14.51A2.73,2.73,0,0,1,148.55,133.37Zm-1.81-5.93,1.28,4.3a1.22,1.22,0,0,0,.29.58,1.09,1.09,0,0,0,.73,0c10.36-2.47,19.5-7.64,25.08-14.18h0a37.27,37.27,0,0,0,8.74-23.28,24.26,24.26,0,0,0-3.09-13,14.66,14.66,0,0,0-10.33-7.23l-2.24,3.16c4,1.63,8.54,4.07,10.38,8.47a15.45,15.45,0,0,1,.86,7.2C177.24,109.83,162.8,125.25,146.74,127.44Z" fill="#231f20"></path><path d="M181.05,70.35c-4.22.86-9.19-.56-11.11-4.4a8.75,8.75,0,0,0,3.81.07c-1.67-1.9-3.54-3.4-4.27-5.9A19.51,19.51,0,0,1,174,41.94c3.85-4.24,11.94-9,17.77-6.72a18.84,18.84,0,0,1,7.61,5.23c1.79,2.16,3.58,5.82,2.62,8.65a29.78,29.78,0,0,1-2.81,6.16,50.3,50.3,0,0,1-4.88,5.82c-3.62,4-7.21,7.81-12.78,9.17Z" fill="#fff"></path><path d="M178.66,71.09c-3.63,0-7.47-1.52-9.17-4.92a.51.51,0,0,1,.06-.53.52.52,0,0,1,.51-.18,8.38,8.38,0,0,0,2.69.2l-.48-.51A12.09,12.09,0,0,1,169,60.26a20,20,0,0,1,4.6-18.66c3.91-4.31,12.18-9.28,18.32-6.84a19.13,19.13,0,0,1,7.81,5.37c2.06,2.48,3.69,6.26,2.71,9.13a30.42,30.42,0,0,1-2.86,6.27,37,37,0,0,1-3.81,4.65c-.37.41-.75.82-1.12,1.24-3.84,4.29-7.46,8-13,9.32l-.47.1A12.74,12.74,0,0,1,178.66,71.09Zm-7.73-4.46c2.16,3,6.52,4,10,3.23h0l.43-.09c5.29-1.3,8.8-4.85,12.52-9,.38-.42.76-.83,1.13-1.25A34.31,34.31,0,0,0,198.74,55a29.76,29.76,0,0,0,2.76-6.05c.85-2.5-.66-5.9-2.54-8.17a18.09,18.09,0,0,0-7.41-5.08c-5.63-2.24-13.6,2.61-17.21,6.59A19,19,0,0,0,170,60a11.21,11.21,0,0,0,3,4.49c.37.4.75.8,1.12,1.22a.5.5,0,0,1-.27.82A9.54,9.54,0,0,1,170.93,66.63Z" fill="#231f20"></path><path d="M203.29,56.21S207,62.75,206,64s-3.73.17-3.73.17" fill="#fff"></path><path d="M204.45,65.08a7.36,7.36,0,0,1-2.34-.46.51.51,0,0,1-.28-.65.49.49,0,0,1,.64-.29c.63.24,2.56.76,3.15,0,.4-.52-.89-3.9-2.76-7.23a.5.5,0,0,1,.19-.68.5.5,0,0,1,.68.19c1.15,2.06,3.72,7,2.68,8.33A2.36,2.36,0,0,1,204.45,65.08Z" fill="#231f20"></path><path d="M203,42.37c2.47,2.34,1.37,12.33,1.13,15.28q-.5,6.21-1.29,12.41c-.33,2.61-7.14,2.17-8.28,1.3l.3,10.46s-3.33.66-8.63-2.29S181,75.29,181,75.29l1.33-12s4.5.36,7.55-4.8,3.54-13.4,3.54-13.4S200.61,40.09,203,42.37Z" fill="#fff"></path><path d="M194,82.38A16.69,16.69,0,0,1,186,80c-5.17-2.87-5.53-4.32-5.51-4.7l1.33-12a.5.5,0,0,1,.53-.45c.17,0,4.24.26,7.08-4.55,2.95-5,3.47-13.1,3.47-13.18a.5.5,0,0,1,.22-.38c.77-.54,7.61-5.2,10.24-2.71,2.17,2,1.9,8.67,1.36,14.89l-.07.79c-.33,4.13-.77,8.31-1.29,12.43A2.37,2.37,0,0,1,201.7,72a11.54,11.54,0,0,1-6.6.15l.28,9.68a.49.49,0,0,1-.4.5A5.77,5.77,0,0,1,194,82.38Zm-12.47-7.11c.07.19.68,1.43,5,3.82,4,2.23,6.85,2.34,7.88,2.28l-.29-10a.5.5,0,0,1,.27-.46.51.51,0,0,1,.53,0c.63.48,4.39,1,6.43.1.65-.27,1-.63,1.06-1.07.52-4.1.95-8.27,1.29-12.38l.06-.8c.29-3.3,1.06-12.09-1.05-14.08h0c-1.66-1.57-6.83,1.35-8.79,2.68-.1,1.44-.77,8.61-3.59,13.38-2.61,4.42-6.22,5-7.53,5Z" fill="#231f20"></path><path d="M203,67s-1.39-.23-5.31-3.51" fill="#fff"></path><path d="M203,67.46h-.08c-.16,0-1.64-.34-5.55-3.62a.49.49,0,0,1-.07-.7.51.51,0,0,1,.71-.06c3.68,3.07,5.07,3.39,5.08,3.4a.5.5,0,0,1-.09,1Z" fill="#231f20"></path><path d="M195.15,58.28a5.75,5.75,0,0,0-1-2.93,8.1,8.1,0,0,0-1.37-2,2.76,2.76,0,0,0-2.18-.85,2.54,2.54,0,0,0-1.72,1.17,4.65,4.65,0,0,0-.67,2,8.89,8.89,0,0,0,3.52,8.19l-.21-.26" fill="#fff"></path><path d="M191.78,64.39a.52.52,0,0,1-.29-.09,9.5,9.5,0,0,1-3.73-8.66,5.15,5.15,0,0,1,.75-2.23A3,3,0,0,1,190.58,52a3.2,3.2,0,0,1,2.6,1,8.46,8.46,0,0,1,1.45,2.11,6,6,0,0,1,1,3.2.5.5,0,1,1-1-.06,5.38,5.38,0,0,0-.89-2.66,7.74,7.74,0,0,0-1.28-1.87,2.26,2.26,0,0,0-1.77-.71,2.06,2.06,0,0,0-1.37,1,4.19,4.19,0,0,0-.59,1.81,8.48,8.48,0,0,0,2.87,7.36.47.47,0,0,1,.34.19l.21.26a.5.5,0,0,1,0,.66A.51.51,0,0,1,191.78,64.39Z" fill="#231f20"></path><path d="M194.58,71.36s-3.45-1.35-4.92-3.89c0,0-.22,6.33,5.05,8.55Z" fill="#231f20"></path><path d="M194.71,76.52a.43.43,0,0,1-.19,0c-5.53-2.33-5.36-9-5.36-9a.5.5,0,0,1,.38-.47.52.52,0,0,1,.56.23c1.35,2.36,4.63,3.67,4.66,3.68a.51.51,0,0,1,.32.45l.13,4.66a.5.5,0,0,1-.22.43A.47.47,0,0,1,194.71,76.52Zm-4.41-7.4a8.29,8.29,0,0,0,3.89,6.09l-.1-3.52A12.85,12.85,0,0,1,190.3,69.12Z" fill="#231f20"></path><ellipse cx="201.14" cy="53.16" rx="1.49" ry="0.58" transform="translate(101.58 235.84) rotate(-76.21)" fill="#231f20"></ellipse><line x1="202.48" y1="52.08" x2="199.68" y2="50.54" fill="#fff"></line><path d="M202.48,52.58a.54.54,0,0,1-.25-.06L199.44,51a.51.51,0,0,1-.2-.68.5.5,0,0,1,.68-.2l2.8,1.54a.5.5,0,0,1,.19.68A.49.49,0,0,1,202.48,52.58Z" fill="#231f20"></path><path d="M168.83,56.92,204.6,45.69s-3.86-12.46-17.17-11.44S168.23,45.78,168.83,56.92Z" fill="#fff"></path><path d="M168.83,57.42a.48.48,0,0,1-.29-.09.47.47,0,0,1-.21-.38c-.58-10.77,5.1-22.12,19.07-23.19C201,32.69,205,45.42,205.08,45.54a.51.51,0,0,1-.33.63L169,57.4ZM189,34.69c-.49,0-1,0-1.51.06-8.75.68-18.67,6.72-18.17,21.5L204,45.37C203.15,43.22,199.29,34.69,189,34.69Z" fill="#231f20"></path><path d="M190.56,50.73a.5.5,0,0,1-.16-1L220.06,40a.5.5,0,0,1,.32.95l-29.67,9.74Z" fill="#231f20"></path><path d="M169.23,50.54s3.51-.31,4.55,2.62l-4.55,1.33" fill="#231f20"></path><path d="M169.23,55a.49.49,0,0,1-.48-.36.5.5,0,0,1,.34-.62l4-1.17c-1.1-2-3.79-1.8-3.82-1.8a.51.51,0,0,1-.54-.46.5.5,0,0,1,.45-.54c1.36-.12,4.15.35,5.07,3a.45.45,0,0,1,0,.39.5.5,0,0,1-.3.25L169.37,55Z" fill="#231f20"></path><path d="M211.69,47.61c-1.3,0-2.36,2.34-2.36,5.22s1.06,5.23,2.36,5.23h26.47V47.61Z" fill="#fff"></path><path d="M238.16,58.57H211.69c-1.64,0-2.88-2.47-2.88-5.74s1.24-5.74,2.88-5.74h26.47a.52.52,0,0,1,.51.52V58.05A.51.51,0,0,1,238.16,58.57ZM211.69,48.13c-.87,0-1.84,2-1.84,4.7s1,4.71,1.84,4.71h25.95V48.13Z" fill="#231f20"></path><ellipse cx="238.16" cy="52.83" rx="2.36" ry="5.22" fill="#fff"></ellipse><path d="M238.16,58.57c-1.64,0-2.88-2.47-2.88-5.74s1.24-5.74,2.88-5.74S241,49.56,241,52.83,239.8,58.57,238.16,58.57Zm0-10.44c-.87,0-1.85,2-1.85,4.7s1,4.71,1.85,4.71,1.85-2,1.85-4.71S239,48.13,238.16,48.13Z" fill="#231f20"></path><path d="M201,49.49c-.83,0-1.51,1.5-1.51,3.34s.68,3.35,1.51,3.35h17V49.49Z" fill="#231f20"></path><path d="M217.9,56.68H201c-1.15,0-2-1.66-2-3.85S199.8,49,201,49h17a.5.5,0,0,1,.5.5v6.69A.5.5,0,0,1,217.9,56.68ZM201,50c-.34,0-1,1-1,2.84s.61,2.85,1,2.85H217.4V50Z" fill="#231f20"></path><path d="M206.4,47.61c-1.3,0-2.36,2.34-2.36,5.22s1.06,5.23,2.36,5.23h26.47V47.61Z" fill="#fff"></path><path d="M232.87,58.57H206.4c-1.64,0-2.88-2.47-2.88-5.74s1.24-5.74,2.88-5.74h26.47a.52.52,0,0,1,.51.52V58.05A.51.51,0,0,1,232.87,58.57ZM206.4,48.13c-.87,0-1.85,2-1.85,4.7s1,4.71,1.85,4.71h25.95V48.13Z" fill="#231f20"></path><ellipse cx="232.87" cy="52.83" rx="2.36" ry="5.22" fill="#fff"></ellipse><path d="M232.87,58.57c-1.65,0-2.88-2.47-2.88-5.74s1.23-5.74,2.88-5.74,2.87,2.47,2.87,5.74S234.51,58.57,232.87,58.57Zm0-10.44c-.88,0-1.85,2-1.85,4.7s1,4.71,1.85,4.71,1.84-2,1.84-4.71S233.74,48.13,232.87,48.13Z" fill="#231f20"></path><path d="M185.35,108.35c31.19,3.83,36.1-1.78,39.3-7.1s2.13-47,1.39-49.54-7.16-4.48-7.16-4.48c0-1.78-2-4.13-3.12-1.76-1.64,3.38-2.46,7.67-3.46,11.29a1.37,1.37,0,0,1-.32.65,1.31,1.31,0,0,1-.78.26l-3.08.37c.08,1.87,4.26,4.12,4.78,5.85.47,1.54-1.92,26.1-2.41,27.54l-22.85-2.65" fill="#fff"></path><path d="M203.08,110.14a147.57,147.57,0,0,1-17.79-1.28.51.51,0,0,1,.12-1c29.82,3.66,35.37-1.16,38.8-6.86,3.11-5.17,1.94-47,1.33-49.12-.55-1.88-5.1-3.63-6.81-4.14a.53.53,0,0,1-.37-.5A2.48,2.48,0,0,0,217.07,45c-.3-.08-.58.16-.84.7a44.24,44.24,0,0,0-2.7,8.36c-.24,1-.48,1.93-.74,2.84a1.78,1.78,0,0,1-.46.89,1.85,1.85,0,0,1-1.07.4l-2.5.29A10.11,10.11,0,0,0,211,60.9a8.08,8.08,0,0,1,2.41,2.84c.52,1.74-2,26.54-2.42,27.86a.53.53,0,0,1-.55.35l-22.85-2.66a.52.52,0,0,1-.45-.57.53.53,0,0,1,.57-.46l22.39,2.61c.57-3.41,2.74-25.28,2.32-26.83a7.9,7.9,0,0,0-2.11-2.37c-1.3-1.17-2.64-2.38-2.7-3.61a.51.51,0,0,1,.46-.53l3.08-.37a1,1,0,0,0,.49-.13,1,1,0,0,0,.17-.41c.25-.9.49-1.85.73-2.81a44.76,44.76,0,0,1,2.77-8.57c.68-1.39,1.63-1.33,2-1.24a3.32,3.32,0,0,1,2.06,2.84c1.47.47,6.44,2.24,7.16,4.73.64,2.19,1.9,44.39-1.43,49.94C222.34,106.09,218.33,110.14,203.08,110.14Z" fill="#231f20"></path><polyline points="169.12 105.99 185.35 108.35 187.64 88.78 175.31 86.76" fill="#d92727"></polyline><path d="M185.35,108.85h-.07L169,106.48a.5.5,0,0,1,.15-1l15.72,2.29,2.18-18.59-11.86-1.94a.49.49,0,0,1-.41-.57.49.49,0,0,1,.57-.41l12.33,2a.51.51,0,0,1,.42.56l-2.29,19.57a.55.55,0,0,1-.2.34A.51.51,0,0,1,185.35,108.85Z" fill="#231f20"></path><polygon points="150.52 154.37 138.14 198.59 178.38 193.14 185.83 161.96 206.17 181.6 232.87 162.38 202.48 134.82 150.52 154.37" fill="#231f20"></polygon><path d="M138.14,199.09a.52.52,0,0,1-.38-.17.5.5,0,0,1-.1-.47L150,154.23a.51.51,0,0,1,.31-.33l52-19.54a.5.5,0,0,1,.51.09L233.2,162a.5.5,0,0,1,.16.4.48.48,0,0,1-.2.38L206.47,182a.5.5,0,0,1-.64,0l-19.72-19-7.25,30.34a.47.47,0,0,1-.41.37l-40.24,5.45Zm12.79-44.34L138.83,198l39.14-5.3,7.37-30.85a.49.49,0,0,1,.35-.36.47.47,0,0,1,.49.12l20,19.35,25.85-18.62-29.7-26.93Z" fill="#231f20"></path><path d="M141.32,114.11a9.86,9.86,0,0,0-.93-4.79c-.91-1.58-2.6-2.52-4.22-3.38-2.45-1.29-5.31-2.6-7.88-1.56-2.3.92-3.52,3.4-4.39,5.73A61,61,0,0,0,120.15,128c-.24,4.41.06,9,2.36,12.82a10.55,10.55,0,0,0,17.84.13c1.93-3.05,1.17-7.67,1.16-11.07Q141.5,122,141.32,114.11Z" fill="#231f20"></path><path d="M131.49,146.33h-.09a11,11,0,0,1-9.32-5.23c-2.59-4.25-2.63-9.51-2.43-13.1a61.07,61.07,0,0,1,3.78-18.07c.85-2.27,2.15-5,4.68-6,2.78-1.11,5.74.24,8.3,1.59,1.85,1,3.47,1.93,4.41,3.57a10.4,10.4,0,0,1,1,5h0c.11,5.25.18,10.57.19,15.8,0,.71,0,1.48.07,2.27.14,3.06.3,6.53-1.31,9.07A10.91,10.91,0,0,1,131.49,146.33Zm-1.2-41.83a4.76,4.76,0,0,0-1.81.34c-2.15.86-3.29,3.23-4.11,5.44a59.82,59.82,0,0,0-3.72,17.77c-.19,3.46-.16,8.52,2.29,12.53a9.94,9.94,0,0,0,8.47,4.75h.08a9.93,9.93,0,0,0,8.44-4.63c1.44-2.27,1.29-5.57,1.15-8.48,0-.81-.07-1.59-.07-2.32,0-5.22-.08-10.53-.19-15.78h0a9.27,9.27,0,0,0-.86-4.55c-.82-1.41-2.3-2.27-4-3.18A12.94,12.94,0,0,0,130.29,104.5Z" fill="#231f20"></path><path d="M138.52,143.67a.51.51,0,0,1-.47-.3.5.5,0,0,1,.25-.68c2.1-1,5.26-6.32,2.85-31.37-.66-6.88-7.05-6.73-9.15-6.69a3.74,3.74,0,0,1-.64,0,.51.51,0,0,1-.4-.61.51.51,0,0,1,.59-.41,2.81,2.81,0,0,0,.42,0c6.29-.14,9.71,2.42,10.21,7.62,1.88,19.59.72,30.49-3.45,32.4A.41.41,0,0,1,138.52,143.67Z" fill="#fff"></path><path d="M135.92,125.87c-6,0-13.34-3.54-13.71-3.72a.52.52,0,0,1,.46-.93c.1,0,10.46,5.06,16.27,3.2a.52.52,0,0,1,.32,1A11.24,11.24,0,0,1,135.92,125.87Z" fill="#fff"></path><path d="M138.61,96.55A5.82,5.82,0,0,1,134,94.13a8.38,8.38,0,0,1-.81-7.25.52.52,0,1,1,1,.31,7.33,7.33,0,0,0,.67,6.35c1.15,1.63,3.65,2.64,5.54,1.54a7.16,7.16,0,0,0,2.19-2.41,53,53,0,0,0,8-22.4.52.52,0,0,1,.57-.46.53.53,0,0,1,.46.58,54,54,0,0,1-8.2,22.84A7.8,7.8,0,0,1,140.87,96,4.53,4.53,0,0,1,138.61,96.55Z" fill="#fff"></path><path d="M149.36,191.09a.36.36,0,0,1-.14,0,.52.52,0,0,1-.36-.63l9.5-34.61a.52.52,0,0,1,1,.28l-9.5,34.6A.52.52,0,0,1,149.36,191.09Z" fill="#fff"></path><path d="M164.73,160.54a.47.47,0,0,1-.32-.12.51.51,0,0,1-.09-.71c.05-.06.21-.22.46-.45,1.39-1.32,5.64-5.33,6.17-9.76a.54.54,0,0,1,.58-.45.52.52,0,0,1,.45.57c-.58,4.81-5,9-6.49,10.39a4.7,4.7,0,0,0-.36.34A.53.53,0,0,1,164.73,160.54Z" fill="#fff"></path><path d="M187.64,162.68l-.15,0a.51.51,0,0,1-.34-.64c0-.07,2.17-7.24,2.17-10.43a.52.52,0,1,1,1,0c0,3.34-2.12,10.42-2.21,10.73A.53.53,0,0,1,187.64,162.68Z" fill="#fff"></path><path d="M104.89,261.53s50.45,1.61,49.22,0c1.41-5.34-22.94-13-20.9-14.88s9.32-11.86,9.32-11.86L120.08,231Z" fill="#231f20"></path><path d="M142.05,262.75c-3.3,0-7.5,0-12.83-.13-12.08-.2-24.22-.58-24.35-.59a.47.47,0,0,1-.41-.24.51.51,0,0,1,0-.48l15.19-30.58a.5.5,0,0,1,.54-.27l22.45,3.84a.52.52,0,0,1,.38.31.51.51,0,0,1-.06.48c-.3.4-7.19,9.8-9.32,11.86.42.74,4.07,2.51,7,3.94,6.91,3.36,14.74,7.15,14,10.67a.65.65,0,0,1-.05.29C154.37,262.24,154.11,262.75,142.05,262.75Zm-36.37-1.69c18.3.57,45.2,1.08,48,.26.52-2.75-7.87-6.82-13.45-9.53-5-2.43-7.43-3.65-7.6-4.75a.83.83,0,0,1,.27-.75c1.69-1.59,7.13-8.9,8.78-11.14l-21.29-3.65Z" fill="#231f20"></path><polygon points="248.36 220.38 226.3 227.1 231.38 245.19 273.36 228.06 248.36 230.09 248.36 220.38" fill="#231f20"></polygon><path d="M231.38,245.69a.44.44,0,0,1-.22-.05.48.48,0,0,1-.26-.31l-5.08-18.09a.5.5,0,0,1,.33-.62l22.07-6.72a.49.49,0,0,1,.44.07.51.51,0,0,1,.2.41v9.17l24.46-2a.5.5,0,0,1,.52.38.51.51,0,0,1-.29.58l-42,17.13A.58.58,0,0,1,231.38,245.69Zm-4.47-18.25,4.8,17.08,38.46-15.69-21.77,1.76a.47.47,0,0,1-.37-.13.48.48,0,0,1-.17-.37v-9Z" fill="#231f20"></path><path d="M302.75,261.53v-8.22c0-2.88-4.81-7.69-11.54-9.29-4.17-1-1.94-7-2.2-9.66a8.62,8.62,0,0,0-6.27-7.44c-7-2.16-13.07,1.17-19.19,4-6.88,3.17-14.05,6.33-21.75,6.5-3.57.08-7.19-.37-10.69.34s-6.41,2.39-9.41,4.07c-2.74,1.55-5.6,3-8.29,4.62-1.44.88-3.45,3.65-5.18,3.66-2.21,0-5.92,2.49-7.46,3.91l-4.91,4.48c-.76.69-1.88,1.78-1.88,2.93,0,0,0,.07,0,.1Z" fill="#fff"></path><path d="M302.75,262.05H194a.52.52,0,0,1-.51-.49.69.69,0,0,1,0-.13c0-1.45,1.39-2.71,2-3.31l4.91-4.48c1.39-1.27,5.28-4,7.81-4,.91,0,2.1-1.11,3.14-2.09a12.73,12.73,0,0,1,1.77-1.49c1.72-1,3.53-2,5.28-3,1-.55,2-1.1,3-1.66,3-1.68,6.08-3.42,9.56-4.12a33.21,33.21,0,0,1,7.44-.38c1.1,0,2.23.05,3.34,0,7.32-.17,14.09-3,21.54-6.46l1.47-.69c5.65-2.64,11.49-5.37,18.09-3.33a9.15,9.15,0,0,1,6.64,7.88,15,15,0,0,1-.16,2.8c-.38,3.39-.47,5.83,2,6.41,6.83,1.62,11.93,6.51,11.93,9.79v8.22A.51.51,0,0,1,302.75,262.05Zm-108.19-1H302.23v-7.71c0-2.44-4.44-7.2-11.14-8.79-3.5-.83-3.06-4.7-2.75-7.53a13.84,13.84,0,0,0,.16-2.58,8.15,8.15,0,0,0-5.92-7c-6.22-1.92-11.87.73-17.34,3.29l-1.48.68c-7.56,3.49-14.43,6.39-21.95,6.56-1.13,0-2.28,0-3.39,0a32.19,32.19,0,0,0-7.21.36c-3.31.67-6.33,2.37-9.25,4-1,.57-2,1.12-3.06,1.67-1.73.93-3.53,1.9-5.22,2.94a11.3,11.3,0,0,0-1.61,1.36c-1.18,1.11-2.52,2.37-3.84,2.37-1.92,0-5.43,2.23-7.12,3.78l-4.9,4.48A5.62,5.62,0,0,0,194.56,261Z" fill="#231f20"></path><path d="M288.77,240.85s-25.17,5.09-34.14,8.94c0,0,25.1-7.27,36.58-5.77" fill="#231f20"></path><path d="M254.63,250.3a.5.5,0,0,1-.48-.34.51.51,0,0,1,.28-.65c8.92-3.82,34-8.92,34.23-9a.52.52,0,0,1,.21,1c-.14,0-8,1.61-16.39,3.67,6.74-1.26,13.93-2.16,18.8-1.52a.51.51,0,0,1-.13,1c-11.25-1.46-36.13,5.68-36.38,5.75Z" fill="#231f20"></path><path d="M240.32,255.85a.52.52,0,0,1-.21,0c-14-6.05-29.21-2.57-29.36-2.53a.52.52,0,0,1-.24-1c.15,0,15.71-3.59,30,2.6a.51.51,0,0,1-.2,1Z" fill="#231f20"></path><path d="M269.7,245.87a.65.65,0,0,1-.19,0,44,44,0,0,0-20.19-3.12,1.24,1.24,0,0,0-.9.38.53.53,0,0,1-.33.66.51.51,0,0,1-.65-.32,1.06,1.06,0,0,1,.13-.93,2.32,2.32,0,0,1,1.66-.82,45.22,45.22,0,0,1,20.67,3.19.52.52,0,0,1-.2,1Z" fill="#231f20"></path><path d="M304.41,226.55h-.06a.5.5,0,0,1-.44-.55,19.28,19.28,0,0,0-27.84-19.2.5.5,0,0,1-.67-.22.49.49,0,0,1,.22-.67,20.26,20.26,0,0,1,29.28,20.2A.49.49,0,0,1,304.41,226.55Z" fill="#d1d3d4"></path><path d="M84.85,232.34a.51.51,0,0,1-.5-.46,15.35,15.35,0,0,1,17.18-16.55.51.51,0,0,1,.43.56.49.49,0,0,1-.56.43,14.35,14.35,0,0,0-16.05,15.47.51.51,0,0,1-.46.55Z" fill="#d1d3d4"></path><path d="M85.76,266.31a.51.51,0,0,1-.5-.46,23.59,23.59,0,0,0-2.51-8.78.5.5,0,1,1,.89-.46,24.63,24.63,0,0,1,2.62,9.15.5.5,0,0,1-.46.54Z" fill="#d1d3d4"></path><path d="M91.61,266a.49.49,0,0,1-.49-.42,18.65,18.65,0,0,1,.34-7.29.51.51,0,0,1,.61-.37.51.51,0,0,1,.36.61,17.63,17.63,0,0,0-.32,6.9.51.51,0,0,1-.42.57Z" fill="#d1d3d4"></path><path d="M182.21,266.31a.5.5,0,0,1-.5-.49,14.83,14.83,0,0,1,1.13-6,1,1,0,0,1,.53-.6.73.73,0,0,1,.76.13.66.66,0,0,1,.2.67.51.51,0,0,1-.63.33,13.68,13.68,0,0,0-1,5.47.51.51,0,0,1-.49.52Z" fill="#d1d3d4"></path><path d="M337.05,264.7a.5.5,0,0,1-.5-.5,57.06,57.06,0,0,0-.49-5.77.5.5,0,0,1,.42-.56.51.51,0,0,1,.57.42,55.42,55.42,0,0,1,.5,5.91A.5.5,0,0,1,337.05,264.7Z" fill="#d1d3d4"></path><path d="M341.14,264.14a.49.49,0,0,1-.5-.45c-.25-2.53,1.51-5.76,1.58-5.9a.49.49,0,0,1,.68-.19.51.51,0,0,1,.2.68s-1.69,3.1-1.47,5.31a.5.5,0,0,1-.44.55Z" fill="#d1d3d4"></path></g></svg>