<svg width="37" height="43" viewBox="0 0 37 43" fill="none" xmlns="http://www.w3.org/2000/svg">
<path d="M18.5 43C18.1754 43 17.8712 42.956 17.5872 42.8679C17.3032 42.7799 17.0395 42.6287 16.7961 42.4143L0.730262 28.3577C0.24342 27.9317 0 27.4263 0 26.8413C0 26.2563 0.24342 25.7501 0.730262 25.3228C1.2171 24.8968 1.78509 24.6838 2.43421 24.6838C3.08333 24.6838 3.65131 24.8968 4.13816 25.3228L16.0658 35.7587V2.07654C16.0658 1.4731 16.2995 0.976151 16.7668 0.585691C17.2342 0.19523 17.8119 0 18.5 0C19.1897 0 19.7682 0.20446 20.2356 0.613378C20.703 1.0223 20.9358 1.52777 20.9342 2.12978V35.7587L32.8618 25.3228C33.3487 24.8968 33.9167 24.6838 34.5658 24.6838C35.2149 24.6838 35.7829 24.8968 36.2697 25.3228C36.7566 25.7487 37 26.2549 37 26.8413C37 27.4277 36.7566 27.9332 36.2697 28.3577L20.2039 42.4143C19.9605 42.6273 19.6968 42.7785 19.4128 42.8679C19.1288 42.9574 18.8246 43.0014 18.5 43Z" fill="#F2F2F2"/>
</svg>
