<svg width="46" height="46" viewBox="0 0 46 46" fill="none" xmlns="http://www.w3.org/2000/svg">
<path d="M13.34 0H32.66C40.02 0 46 5.98 46 13.34V32.66C46 36.198 44.5945 39.5911 42.0928 42.0928C39.5911 44.5945 36.198 46 32.66 46H13.34C5.98 46 0 40.02 0 32.66V13.34C0 9.80201 1.40546 6.40893 3.9072 3.9072C6.40893 1.40546 9.80201 0 13.34 0ZM12.88 4.6C10.684 4.6 8.57796 5.47235 7.02516 7.02516C5.47235 8.57796 4.6 10.684 4.6 12.88V33.12C4.6 37.697 8.303 41.4 12.88 41.4H33.12C35.316 41.4 37.422 40.5276 38.9748 38.9748C40.5276 37.422 41.4 35.316 41.4 33.12V12.88C41.4 8.303 37.697 4.6 33.12 4.6H12.88ZM35.075 8.05C35.8375 8.05 36.5688 8.3529 37.1079 8.89207C37.6471 9.43123 37.95 10.1625 37.95 10.925C37.95 11.6875 37.6471 12.4188 37.1079 12.9579C36.5688 13.4971 35.8375 13.8 35.075 13.8C34.3125 13.8 33.5812 13.4971 33.0421 12.9579C32.5029 12.4188 32.2 11.6875 32.2 10.925C32.2 10.1625 32.5029 9.43123 33.0421 8.89207C33.5812 8.3529 34.3125 8.05 35.075 8.05ZM23 11.5C26.05 11.5 28.9751 12.7116 31.1317 14.8683C33.2884 17.0249 34.5 19.95 34.5 23C34.5 26.05 33.2884 28.9751 31.1317 31.1317C28.9751 33.2884 26.05 34.5 23 34.5C19.95 34.5 17.0249 33.2884 14.8683 31.1317C12.7116 28.9751 11.5 26.05 11.5 23C11.5 19.95 12.7116 17.0249 14.8683 14.8683C17.0249 12.7116 19.95 11.5 23 11.5ZM23 16.1C21.17 16.1 19.415 16.827 18.121 18.121C16.827 19.415 16.1 21.17 16.1 23C16.1 24.83 16.827 26.585 18.121 27.879C19.415 29.173 21.17 29.9 23 29.9C24.83 29.9 26.585 29.173 27.879 27.879C29.173 26.585 29.9 24.83 29.9 23C29.9 21.17 29.173 19.415 27.879 18.121C26.585 16.827 24.83 16.1 23 16.1Z" fill="#F2F2F2"/>
</svg>
