<svg width="46" height="35" viewBox="0 0 46 35" fill="none" xmlns="http://www.w3.org/2000/svg">
<path d="M38.4763 1.15738L35.5334 3.47696L23.0029 12.8712L10.4724 3.38418L7.52941 1.0646C6.83611 0.48597 5.98977 0.125264 5.09525 0.0271688C4.20073 -0.070926 3.29734 0.0979015 2.497 0.512735C1.69666 0.927568 1.03454 1.57018 0.592669 2.36095C0.150798 3.15172 -0.0514028 4.05591 0.0111151 4.96149V31.8454C0.0111151 32.682 0.340553 33.4844 0.926956 34.076C1.51336 34.6676 2.30869 35 3.13799 35H10.4724V17.0929L23.0029 26.5799L35.5334 17.0929V35H42.8677C43.697 35 44.4924 34.6676 45.0788 34.076C45.6652 33.4844 45.9946 32.682 45.9946 31.8454V4.96149C46.0378 4.06372 45.8215 3.17264 45.3721 2.39655C44.9227 1.62047 44.2595 0.9928 43.4631 0.589853C42.6667 0.186905 41.7715 0.0260306 40.8862 0.126783C40.0009 0.227535 39.1637 0.585575 38.4763 1.15738Z" fill="#F2F2F2"/>
</svg>
